<svg xmlns="http://www.w3.org/2000/svg" viewBox="0 0 400 400"><defs><style>.cls-1{fill:#fff;}.cls-2{fill:#ffd8bd;}.cls-3{fill:#898989;}.cls-4{fill:#f9c7a5;}.cls-5{fill:#d1d1d1;}.cls-6{fill:#ffd100;}</style></defs><g id="圖層_7" data-name="圖層 7"><path class="cls-1" d="M250.45,363.67a44,44,0,0,1-4.52-14.9c-6.78-26.12-14.72-37-14.72-37a54.71,54.71,0,0,1-5.43-10.54c-4.45-12.48-2.39-25.51,5.19-28.79l.54-.21c8.07-3.08,15,3.23,17.09,6.08,2.94,4,7.7,14,8.06,15,6.23,17.6,5.64,25.38,20.48,33.91,13.3,7.65,16.94,1.42,18.13-4.56a18.53,18.53,0,0,0,.32-2.34l-17.37-33-17.38-33.05c16.89,3.68,32.49,11.14,57.78,34.3,15.36,14.07,22.92,32.27,26.44,49.19A199.3,199.3,0,0,0,400,200C400,89.54,310.46,0,200,0S0,89.54,0,200,89.54,400,200,400a199.74,199.74,0,0,0,69.34-12.35C261.73,381.07,254.57,373,250.45,363.67ZM213.1,257.11a58,58,0,0,1,11.5-4.53L230,268h-.57L213.1,257.11Z"/><path class="cls-1" d="M294.73,311.89c-1.77-6.16-6.27-17.62-16.51-24.65l17.37,33A23.37,23.37,0,0,0,294.73,311.89Z"/><path class="cls-2" d="M230,268l-5.44-15.46a58,58,0,0,0-11.5,4.53h0L229.47,268Z"/><rect class="cls-3" x="53.3" y="92.79" width="13.75" height="154.1"/><rect class="cls-3" x="74.78" y="92.79" width="4.46" height="154.1"/><rect class="cls-3" x="89.35" y="92.79" width="20.67" height="154.1"/><rect class="cls-3" x="121.05" y="92.79" width="10.46" height="154.1"/><rect class="cls-3" x="139.24" y="92.79" width="6.88" height="154.1"/><rect class="cls-3" x="156.53" y="92.79" width="17.95" height="154.1"/><rect class="cls-3" x="182.22" y="92.79" width="6.88" height="154.1"/><rect class="cls-3" x="200" y="92.79" width="17.46" height="154.1"/><rect class="cls-3" x="225.19" y="92.79" width="13.75" height="154.1"/><rect class="cls-3" x="246.68" y="92.79" width="6.88" height="154.1"/><rect class="cls-3" x="260.59" y="92.79" width="18.85" height="154.1"/><rect class="cls-3" x="289.65" y="92.79" width="21.59" height="154.1"/><rect class="cls-3" x="318.01" y="92.79" width="6.88" height="154.1"/><rect class="cls-3" x="332.62" y="92.79" width="13.75" height="154.1"/><ellipse class="cls-2" cx="220.39" cy="267.12" rx="14.82" ry="12.29" transform="matrix(0.92, -0.4, 0.4, 0.92, -88.33, 110.21)"/><path class="cls-4" d="M253.12,339.17a15,15,0,0,0,2.31-6.6,17.09,17.09,0,0,0-6.85-15.16,21.49,21.49,0,0,0,4.54-11.26c1.2-11.66-6.62-22.42-17.47-24s-20.62,6.56-21.83,18.22a22.49,22.49,0,0,0,9.33,20.79,15.15,15.15,0,0,0-2.14,6.35c-.76,7.42,3.82,14.44,10.78,17.47a14.62,14.62,0,0,0-1.52,5.14,16.32,16.32,0,0,0,13.9,17.54,14.71,14.71,0,0,0,17.06-13A16.17,16.17,0,0,0,253.12,339.17Z"/><ellipse class="cls-4" cx="288.75" cy="305.69" rx="16.4" ry="33.27" transform="translate(-104.91 157.85) rotate(-26.05)"/><path class="cls-5" d="M312,363.15l-37,16.12a5,5,0,0,1-6.78-2.95L217.54,232.56a5,5,0,0,1,2.75-6.31L237,219a5,5,0,0,1,6.48,2.28l70.95,134.92A5.06,5.06,0,0,1,312,363.15Z"/><rect class="cls-5" x="218.53" y="209.59" width="18.32" height="20.26" transform="translate(-68.79 109.18) rotate(-23.53)"/><path class="cls-2" d="M345.06,337.68c-3.52-16.92-11.08-35.12-26.44-49.19-25.29-23.16-40.89-30.62-57.78-34.3l17.38,33.05c10.24,7,14.74,18.49,16.51,24.65a23.37,23.37,0,0,1,.86,8.39L317,361l-47,20.46L231.51,272.21l-.54.21c-7.58,3.28-9.64,16.31-5.19,28.79a54.71,54.71,0,0,0,5.43,10.54s7.94,10.9,14.72,37a44,44,0,0,0,4.52,14.9c4.12,9.32,11.28,17.4,18.89,24A200.23,200.23,0,0,0,345.06,337.68Z"/><path class="cls-2" d="M277.14,327.18c-14.84-8.53-14.25-16.31-20.48-33.91-.36-1-5.12-11-8.06-15-2.12-2.85-9-9.16-17.09-6.08L270,381.44,317,361l-21.4-40.7a18.53,18.53,0,0,1-.32,2.34C294.08,328.6,290.44,334.83,277.14,327.18Z"/><circle class="cls-1" cx="193.68" cy="133.09" r="85.82"/><path class="cls-5" d="M193.58,56.86h0a77.1,77.1,0,0,1,13.86,1.27,76.1,76.1,0,1,1-13.86-1.27m0-9.6a85.87,85.87,0,1,0,15.59,1.42,85.85,85.85,0,0,0-15.59-1.42Z"/><path class="cls-6" d="M183.74,180.59a7.22,7.22,0,0,1-6.07-3.32L151.89,137A7.2,7.2,0,1,1,164,129.21l19.24,30.07,38.4-69.95a7.2,7.2,0,1,1,12.62,6.93l-44.23,80.59a7.18,7.18,0,0,1-6.07,3.73Z"/></g></svg>