<svg xmlns="http://www.w3.org/2000/svg" viewBox="0 0 400 400"><defs><style>.cls-1{fill:#fff;}.cls-2{fill:#d1d1d1;}.cls-3{fill:#898989;}.cls-4{fill:#fff8e6;}.cls-5{fill:#ffd8bd;}.cls-6{fill:#ffd100;}</style></defs><g id="圖層_7" data-name="圖層 7"><path class="cls-1" d="M292,359.57c-13.44,2.77-27.81,1.4-41.78-2.22-39.87-10.34-61.3-30-64.7-47.6-.83-4.27,3-1.61,10.52,5.39,3.73,3.47,11.09,8.54,17.28,12.6,7.27,4.77,14.2,8.08,24.53,6.79,26.56-3.32,45.52-14.48,48.73-21.49a19.4,19.4,0,0,0,.79-12.11,273.43,273.43,0,0,0-15.54-40.38c-.86-1.74-13-9.68-14.37-10.42-1.57-.88-6.8-4.6-9.35-4.19-5,.83-36.68,1.78-38.19-14.23-.79-8.38,9.56-14.33,22.6-14.71,29.61-.88,62.9,15.05,75.83,29.88,6.59,7.56,14.41,16.12,18.64,27.46,6.46,17.34,6.19,25.93,5.69,31.87a13,13,0,0,0,5.14,11.48l15,11.29A199.19,199.19,0,0,0,400,200C400,89.54,310.46,0,200,0S0,89.54,0,200,89.54,400,200,400a199.05,199.05,0,0,0,107.53-31.34l-4.63-5.41A11.31,11.31,0,0,0,292,359.57Z"/><path class="cls-2" d="M303.81,274.51c-2.59-20.36-25.51-38.08-37.09-44.89.76-2.21,1.43-4.5,2-6.87,2-8.58,2.84-19.66,0-27.77a161.63,161.63,0,0,0-7.23-17.24c-2-4.41-5-2.26-9.24-3.26-11.34-2.69-22.85,7.52-30.14,23.7l-52.35,4.94c-.57-1-1.15-2-1.77-3-6.81-11-15.86-19.11-24.68-23L104,50.29l-2,.07A4.21,4.21,0,0,0,98.78,52L80.12,76.34A17,17,0,0,0,77.44,92L113.8,203.43c.73,2.25,1.37,4.53,2,6.82a66.68,66.68,0,0,0,7.65,17.31,62.39,62.39,0,0,0,19.2,20.05h0l.07,0,.62.37a91.33,91.33,0,0,1,30.19,32.72c12,25.6,30,45.33,42.57,51.4.64.32,1.28.62,1.9,1,6.43,3.62,21.63,10.6,35.91,7.05,7.48-1.85,25.68-9.21,30.89-12.4C298.67,321.52,307,299.41,303.81,274.51Z"/><path class="cls-3" d="M262.76,195.53,159,205.22a8,8,0,0,1-8.32-5.4L100.71,52.53a1.65,1.65,0,0,1,1.5-2.18L209.88,46.6a8.42,8.42,0,0,1,8.22,5.6l48.59,137.18A4.63,4.63,0,0,1,262.76,195.53Z"/><path class="cls-1" d="M250.32,185.12l-88.61,6.67a2.78,2.78,0,0,1-2.89-2l-44-126.11a3,3,0,0,1,2.55-3.94L206,56.15a2.8,2.8,0,0,1,2.72,2l43.94,123A3,3,0,0,1,250.32,185.12Z"/><path class="cls-3" d="M272.35,306.58l-42.73,9.29c-3.2,1-6.57-.91-7.83-4.48l-23.87-67.57c-1.64-4.66,1-9.8,5.36-10.28l45.66-5.15c2.89-.32,5.64,1.6,6.74,4.72l20.94,63.43C278.09,300.71,276.09,305.4,272.35,306.58Z"/><path class="cls-4" d="M252.27,247l-40.16,4.41a3.55,3.55,0,0,1-3.79-2.41l-1.14-3.92c-.7-2.13,1.34-4.38,3.58-4.63l39.63-3.71a3.57,3.57,0,0,1,3.78,2.42l1.06,3.23A3.53,3.53,0,0,1,252.27,247Z"/><path class="cls-5" d="M352.84,329l-15-11.29a13,13,0,0,1-5.14-11.48c.5-5.94.77-14.53-5.69-31.87-4.23-11.34-12.05-19.9-18.64-27.46C295.4,232.05,262.11,216.12,232.5,217c-13,.38-23.39,6.33-22.6,14.71,1.51,16,33.16,15.06,38.19,14.23,2.55-.41,7.78,3.31,9.35,4.19,1.33.74,13.51,8.68,14.37,10.42a273.43,273.43,0,0,1,15.54,40.38,19.4,19.4,0,0,1-.79,12.11c-3.21,7-22.17,18.17-48.73,21.49-10.33,1.29-17.26-2-24.53-6.79-6.19-4.06-13.55-9.13-17.28-12.6-7.53-7-11.35-9.66-10.52-5.39,3.4,17.6,24.83,37.26,64.7,47.6,14,3.62,28.34,5,41.78,2.22a11.31,11.31,0,0,1,10.92,3.68l4.63,5.41A201.1,201.1,0,0,0,352.84,329Z"/><ellipse class="cls-5" cx="167.41" cy="276.44" rx="18.82" ry="14.45" transform="matrix(0.99, -0.11, 0.11, 0.99, -28.82, 19.65)"/><ellipse class="cls-5" cx="174.63" cy="293.38" rx="19.78" ry="16.08" transform="translate(-42.6 29.99) rotate(-8.75)"/><ellipse class="cls-5" cx="183.36" cy="311.96" rx="16.45" ry="12.97" transform="translate(-45.33 31.53) rotate(-8.75)"/><path class="cls-4" d="M129.11,172.46l-7.92,10.74a2,2,0,0,1-3.5-.55L100,129.53a2,2,0,0,1,.3-1.83l8-10.56a2,2,0,0,1,3.48.57l17.61,52.94A2,2,0,0,1,129.11,172.46Z"/><path class="cls-4" d="M249.1,257.46l7.46-.76a2.44,2.44,0,0,1,2.52,1.54l1.12,2.91a2.43,2.43,0,0,1-2,3.29l-7.31.93a2.44,2.44,0,0,1-2.55-1.48l-1.28-3.08A2.44,2.44,0,0,1,249.1,257.46Z"/><path class="cls-4" d="M233.3,259.32l8.07-.9a2.43,2.43,0,0,1,2.5,1.46l1.39,3.22a2.43,2.43,0,0,1-1.9,3.37l-8,1.12a2.43,2.43,0,0,1-2.57-1.48l-1.43-3.44A2.43,2.43,0,0,1,233.3,259.32Z"/><path class="cls-4" d="M227.28,268.81l-9.06,1.51a2.43,2.43,0,0,1-2.67-1.53l-1.78-4.66a2.43,2.43,0,0,1,2-3.28l9.09-.93a2.41,2.41,0,0,1,2.47,1.46l1.76,4.07A2.44,2.44,0,0,1,227.28,268.81Z"/><path class="cls-4" d="M255.4,273.72l7.47-.76a2.42,2.42,0,0,1,2.51,1.54l1.13,2.91a2.44,2.44,0,0,1-2,3.29l-7.31.93a2.45,2.45,0,0,1-2.55-1.48l-1.27-3.08A2.42,2.42,0,0,1,255.4,273.72Z"/><path class="cls-4" d="M239.61,275.58l8.07-.9a2.42,2.42,0,0,1,2.5,1.46l1.39,3.22a2.43,2.43,0,0,1-1.9,3.37l-8,1.12a2.43,2.43,0,0,1-2.58-1.48l-1.43-3.44A2.44,2.44,0,0,1,239.61,275.58Z"/><path class="cls-4" d="M233.59,285.07l-9.11,1.51a2.43,2.43,0,0,1-2.65-1.48l-1.7-4.2a2.43,2.43,0,0,1,1.9-3.32l9.09-1.31a2.42,2.42,0,0,1,2.58,1.44l1.72,4A2.44,2.44,0,0,1,233.59,285.07Z"/><path class="cls-4" d="M261.58,289.38l7.54-1.13a2.44,2.44,0,0,1,2.63,1.53l1.15,3a2.42,2.42,0,0,1-1.85,3.26l-7.38,1.3a2.44,2.44,0,0,1-2.67-1.46l-1.3-3.13A2.43,2.43,0,0,1,261.58,289.38Z"/><path class="cls-4" d="M245.82,292.24,254,291a2.44,2.44,0,0,1,2.61,1.44l1.41,3.28A2.43,2.43,0,0,1,256.2,299l-8.1,1.5a2.43,2.43,0,0,1-2.69-1.46L244,295.57A2.42,2.42,0,0,1,245.82,292.24Z"/><path class="cls-4" d="M240.14,302.56,231,304.47a2.44,2.44,0,0,1-2.77-1.51l-1.79-4.71a2.43,2.43,0,0,1,1.92-3.27l9.15-1.32a2.43,2.43,0,0,1,2.58,1.44l1.77,4.12A2.43,2.43,0,0,1,240.14,302.56Z"/><path class="cls-6" d="M185.2,169.79a7.21,7.21,0,0,1-5.75-2.85l-29.11-38.32a7.22,7.22,0,0,1,11.5-8.74l19.22,25.3L193,80.45a7.22,7.22,0,0,1,14.21,2.62L192.3,163.88a7.24,7.24,0,0,1-7.1,5.91Z"/></g></svg>