<svg xmlns="http://www.w3.org/2000/svg" viewBox="0 0 400 400"><defs><style>.cls-1{fill:#fff;}.cls-2{fill:#b8e2dd;}.cls-3{fill:#ffd100;}.cls-4{fill:#d1d1d1;}.cls-5{fill:#ccf7f1;}.cls-6{fill:#00c7b1;}.cls-7{fill:#fff8e6;}</style></defs><g id="圖層_7" data-name="圖層 7"><circle class="cls-1" cx="200" cy="200" r="200"/><rect class="cls-2" x="62.82" y="136.89" width="183.01" height="134.41" rx="1.75"/><rect class="cls-2" x="50.11" y="147.23" width="183.01" height="134.41" rx="1.75"/><path class="cls-3" d="M363.22,157.13V136.28a1.73,1.73,0,0,0-1.73-1.73h-9.76a1.73,1.73,0,0,1-1.6-1.1,43.05,43.05,0,0,0-2.11-4.51,1.74,1.74,0,0,1,.38-2.14l5.66-4.92a1.74,1.74,0,0,0,.17-2.45l-13.68-15.72a1.73,1.73,0,0,0-2.44-.17L330.66,110a1.72,1.72,0,0,1-1.91.23,45,45,0,0,0-6.67-2.65,1.72,1.72,0,0,1-1.25-1.65V96.28a1.73,1.73,0,0,0-1.73-1.74H298.26a1.73,1.73,0,0,0-1.73,1.74v10a1.74,1.74,0,0,1-1.2,1.64,44.27,44.27,0,0,0-7.16,3.11,1.71,1.71,0,0,1-2.05-.28l-6.95-7a1.74,1.74,0,0,0-2.45,0L262,118.54a1.74,1.74,0,0,0,0,2.45l7.37,7.37a1.72,1.72,0,0,1,.32,2,43.31,43.31,0,0,0-2.41,6,1.71,1.71,0,0,1-1.64,1.22h-8.4a1.73,1.73,0,0,0-1.73,1.73v20.85a1.73,1.73,0,0,0,1.73,1.73h8.4a1.73,1.73,0,0,1,1.64,1.22,45,45,0,0,0,2.57,6.34,1.72,1.72,0,0,1-.39,2.09l-7.13,6.2a1.73,1.73,0,0,0-.17,2.44l13.68,15.73a1.74,1.74,0,0,0,2.44.17l8.34-7.26a1.73,1.73,0,0,1,1.95-.21,44.49,44.49,0,0,0,7.28,3.07,1.71,1.71,0,0,1,1.22,1.64v9.84a1.73,1.73,0,0,0,1.73,1.73h20.85a1.73,1.73,0,0,0,1.73-1.73v-9.84a1.71,1.71,0,0,1,1.22-1.64,43.33,43.33,0,0,0,7.93-3.42,1.74,1.74,0,0,1,2.07.27l7.27,7.28a1.73,1.73,0,0,0,2.45,0L357,181a1.73,1.73,0,0,0,0-2.44l-7.84-7.84a1.73,1.73,0,0,1-.32-2,44.13,44.13,0,0,0,3.09-8.59,1.72,1.72,0,0,1,1.67-1.33h7.85A1.73,1.73,0,0,0,363.22,157.13Z"/><path class="cls-4" d="M360.53,242.38v-9.15a.76.76,0,0,0-.76-.76h-4.28a.75.75,0,0,1-.7-.48,17.86,17.86,0,0,0-.93-2,.77.77,0,0,1,.17-.94l2.48-2.16a.76.76,0,0,0,.08-1.07l-6-6.9a.75.75,0,0,0-1.07-.07l-3.27,2.84a.74.74,0,0,1-.83.1,20.06,20.06,0,0,0-2.93-1.16.77.77,0,0,1-.55-.73v-4.24a.76.76,0,0,0-.76-.76H332a.76.76,0,0,0-.76.76v4.39a.76.76,0,0,1-.53.72,19.46,19.46,0,0,0-3.14,1.36.76.76,0,0,1-.9-.12L323.65,219a.75.75,0,0,0-1.07,0l-6.47,6.47a.75.75,0,0,0,0,1.07l3.23,3.24a.74.74,0,0,1,.14.87,19.48,19.48,0,0,0-1.05,2.63.76.76,0,0,1-.72.53H314a.76.76,0,0,0-.76.76v9.14a.76.76,0,0,0,.76.76h3.69a.76.76,0,0,1,.72.54,18.19,18.19,0,0,0,1.13,2.78.78.78,0,0,1-.18.92l-3.13,2.72a.76.76,0,0,0-.07,1.07l6,6.9a.76.76,0,0,0,1.07.08l3.66-3.19a.76.76,0,0,1,.86-.09,19.57,19.57,0,0,0,3.19,1.35.75.75,0,0,1,.54.72v4.31a.76.76,0,0,0,.76.76h9.14a.76.76,0,0,0,.76-.76v-4.32a.75.75,0,0,1,.54-.71,20,20,0,0,0,3.48-1.5.76.76,0,0,1,.91.12l3.19,3.19a.75.75,0,0,0,1.07,0l6.47-6.47a.75.75,0,0,0,0-1.07l-3.44-3.44a.76.76,0,0,1-.14-.87,18.57,18.57,0,0,0,1.35-3.77.77.77,0,0,1,.74-.58h3.44A.76.76,0,0,0,360.53,242.38Z"/><path class="cls-4" d="M310.25,273v-6.68a.55.55,0,0,0-.55-.55h-3.13a.54.54,0,0,1-.51-.35,14.75,14.75,0,0,0-.68-1.45.55.55,0,0,1,.12-.68l1.82-1.58a.56.56,0,0,0,.05-.79l-4.38-5a.57.57,0,0,0-.79,0l-2.38,2.08a.56.56,0,0,1-.62.07,14.12,14.12,0,0,0-2.13-.85.55.55,0,0,1-.4-.53v-3.1a.56.56,0,0,0-.56-.55h-6.68a.55.55,0,0,0-.55.55v3.21a.55.55,0,0,1-.39.52,14.17,14.17,0,0,0-2.29,1,.55.55,0,0,1-.66-.09l-2.23-2.22a.54.54,0,0,0-.78,0l-4.72,4.72a.54.54,0,0,0,0,.78l2.36,2.36a.56.56,0,0,1,.1.64,14.51,14.51,0,0,0-.77,1.92.57.57,0,0,1-.53.39h-2.69a.56.56,0,0,0-.56.56V274a.56.56,0,0,0,.56.55H279a.57.57,0,0,1,.53.39,14.36,14.36,0,0,0,.82,2,.54.54,0,0,1-.13.67l-2.28,2a.55.55,0,0,0-.05.78l4.38,5a.55.55,0,0,0,.78.06l2.68-2.33a.54.54,0,0,1,.62-.06,14.25,14.25,0,0,0,2.34,1,.55.55,0,0,1,.39.52v3.16a.54.54,0,0,0,.55.55h6.68a.55.55,0,0,0,.56-.55V284.6a.53.53,0,0,1,.39-.52,13.63,13.63,0,0,0,2.54-1.1.56.56,0,0,1,.66.09l2.33,2.33a.56.56,0,0,0,.79,0l4.72-4.72a.54.54,0,0,0,0-.78l-2.51-2.52a.53.53,0,0,1-.1-.63,14.29,14.29,0,0,0,1-2.75.55.55,0,0,1,.53-.43h2.52A.56.56,0,0,0,310.25,273Z"/><circle class="cls-1" cx="309.36" cy="149.7" r="20.46"/><rect class="cls-5" x="36.78" y="158.54" width="183.01" height="134.41" rx="1.75"/><path class="cls-6" d="M219.79,175.1h-183V160.29a1.74,1.74,0,0,1,1.74-1.75H218a1.75,1.75,0,0,1,1.75,1.75Z"/><circle class="cls-5" cx="47.5" cy="166.82" r="2.97"/><circle class="cls-5" cx="56.64" cy="166.82" r="2.97"/><circle class="cls-5" cx="65.79" cy="166.82" r="2.97"/><rect class="cls-1" x="86.74" y="186.52" width="37.74" height="33.3" rx="1.12"/><rect class="cls-1" x="129.68" y="186.52" width="37.74" height="33.3" rx="1.12"/><rect class="cls-1" x="172.34" y="186.52" width="37.74" height="33.3" rx="1.12"/><rect class="cls-7" x="44.53" y="187.02" width="31.63" height="6.76" rx="1.4"/><rect class="cls-7" x="89.8" y="224.03" width="31.63" height="6.76" rx="1.4"/><rect class="cls-7" x="132.73" y="224.03" width="31.63" height="6.76" rx="1.4"/><rect class="cls-7" x="175.4" y="224.03" width="31.63" height="6.76" rx="1.4"/><rect class="cls-7" x="44.53" y="199.79" width="31.63" height="6.76" rx="1.4"/><rect class="cls-7" x="44.53" y="212.56" width="31.63" height="6.76" rx="1.4"/><rect class="cls-7" x="44.53" y="225.33" width="31.63" height="6.76" rx="1.4"/><rect class="cls-1" x="86.74" y="237.53" width="37.74" height="33.3" rx="1.12"/><rect class="cls-1" x="129.68" y="237.53" width="37.74" height="33.3" rx="1.12"/><rect class="cls-1" x="172.34" y="237.53" width="37.74" height="33.3" rx="1.12"/><rect class="cls-7" x="89.8" y="275.04" width="31.63" height="6.76" rx="1.4"/><rect class="cls-7" x="132.73" y="275.04" width="31.63" height="6.76" rx="1.4"/><rect class="cls-7" x="175.4" y="275.04" width="31.63" height="6.76" rx="1.4"/><path class="cls-3" d="M229.49,259.13H203.11a2.1,2.1,0,1,1,0-4.19h26.38c1.51,0,2.79-1.78,2.79-3.89V155.69c0-4.46,3.13-8.08,7-8.08H285a2.1,2.1,0,1,1,0,4.19H239.25c-1.51,0-2.78,1.78-2.78,3.89v95.36C236.47,255.51,233.34,259.13,229.49,259.13Z"/><ellipse class="cls-3" cx="195.96" cy="257.04" rx="8.06" ry="8.24"/></g></svg>