<svg xmlns="http://www.w3.org/2000/svg" viewBox="0 0 400 400"><defs><style>.cls-1{fill:#fff;}.cls-2{fill:#d1d1d1;}.cls-3{fill:#00c7b1;}.cls-4{fill:#898989;}.cls-5{fill:#ffd100;}</style></defs><g id="圖層_7" data-name="圖層 7"><circle class="cls-1" cx="200" cy="200" r="200"/><circle class="cls-2" cx="205.68" cy="256.53" r="22.97"/><path class="cls-3" d="M78.09,114.64H269.75l-30,141.56H52.19c-2.91,0-5.08-3-4.46-6.19L73.08,119.16A5.31,5.31,0,0,1,78.09,114.64Z"/><path class="cls-4" d="M239.7,256.2l30.05-141.56,60.91,9.2a5,5,0,0,1,4.11,5.93L308.2,256.2Z"/><ellipse class="cls-2" cx="333.4" cy="263.07" rx="16.89" ry="19.09"/><path class="cls-4" d="M358.32,181.8s8.29-.41,8.83,2.23c1.13,5.5-2.45,20.64-2.45,20.64a38.35,38.35,0,0,0-6-1S358.79,186.65,358.32,181.8Z"/><path class="cls-3" d="M272.86,151.44,254.14,246a4,4,0,0,0,2.55,4.54l40.67,14.95a12.31,12.31,0,0,0,3.93.77l54.1,1.87a5,5,0,0,0,4.61-2.7c4.4-8.64,16.68-35.53,11.79-58.09-1.13-5.18-10.57-5.64-10.57-5.64s3.06-37.71-9.43-51c-6.29-6.71-42.28-9.42-74.05-4A6,6,0,0,0,272.86,151.44Z"/><path class="cls-1" d="M355.72,199.53a2.21,2.21,0,0,1-2.6,2c-20.46-3.88-24.75-2.85-44.84-.72-3.46.36-9.35-15.76-6-28.57.91-3.49,38.68-8,51.35,0C358.14,175.05,356.24,193.25,355.72,199.53Z"/><path class="cls-4" d="M278.17,177.69l-2.65,17a1.7,1.7,0,0,0,.26,1.22,21.8,21.8,0,0,0,9.27,7.8c1.93.83,4.48-18.13,5-22.32a1.75,1.75,0,0,0-.52-1.48,13,13,0,0,0-9.77-3.69A1.75,1.75,0,0,0,278.17,177.69Z"/><path class="cls-4" d="M291.56,209.25h-4a3.41,3.41,0,0,1-3.23-3.56v-3a.72.72,0,1,1,1.43,0v3a2,2,0,0,0,1.8,2.13h4a.72.72,0,0,1,0,1.43Z"/><ellipse class="cls-2" cx="284.19" cy="262.23" rx="20.62" ry="22.72"/><ellipse class="cls-1" cx="283.24" cy="262.23" rx="7.68" ry="8.98"/><ellipse class="cls-2" cx="98.9" cy="255.74" rx="22.37" ry="24.64"/><ellipse class="cls-1" cx="97.87" cy="255.74" rx="8.33" ry="9.74"/><path class="cls-4" d="M357.22,227.23h-.08l-15.78-1.56a.75.75,0,1,1,.15-1.49l15.78,1.56a.75.75,0,0,1,.67.82A.74.74,0,0,1,357.22,227.23Z"/><path class="cls-4" d="M354.7,234.06h-.07L342.81,233a.75.75,0,0,1-.68-.82.76.76,0,0,1,.81-.68l11.83,1.08a.77.77,0,0,1,.68.82A.76.76,0,0,1,354.7,234.06Z"/><path class="cls-4" d="M351.53,240.42h-.07l-7.09-.6a.75.75,0,1,1,.12-1.5l7.1.6a.75.75,0,0,1-.06,1.5Z"/><path class="cls-1" d="M113.17,198.15a.35.35,0,0,1,.35-.35h4.23a3.62,3.62,0,0,1,3.89,3.42,3.5,3.5,0,0,1-2,2.93,3.32,3.32,0,0,1,2.4,3,3.73,3.73,0,0,1-4,3.56h-4.47a.35.35,0,0,1-.35-.35Zm4.36,5.08a1.58,1.58,0,0,0,1.58-1.66,1.5,1.5,0,0,0-1.58-1.57h-2v3.23Zm.26,5.32a1.65,1.65,0,0,0,1.66-1.68,1.79,1.79,0,0,0-1.89-1.61h-2v3.29Z"/><path class="cls-1" d="M135.34,197.62a6.65,6.65,0,1,1-6.63,6.66A6.64,6.64,0,0,1,135.34,197.62Zm0,10.89a4.25,4.25,0,1,0-4.23-4.23A4.26,4.26,0,0,0,135.34,208.51Z"/><path class="cls-1" d="M152,204.1l-3.69-5.78a.33.33,0,0,1,.31-.52h2.14a.39.39,0,0,1,.3.17l2.36,3.91h0l2.4-3.91a.36.36,0,0,1,.3-.17h2.14a.33.33,0,0,1,.31.52l-3.71,5.78,3.84,6.11a.32.32,0,0,1-.31.51h-2a.37.37,0,0,1-.31-.16l-2.64-4.23h-.06l-2.6,4.23a.43.43,0,0,1-.31.16h-2c-.33,0-.48-.27-.33-.51Z"/><path class="cls-1" d="M166,198.15a.35.35,0,0,1,.35-.35h7.51a.35.35,0,0,1,.35.35v1.52a.35.35,0,0,1-.35.35h-5.46v3.47H173a.36.36,0,0,1,.35.35v1.51a.36.36,0,0,1-.35.35h-4.56v4.67a.36.36,0,0,1-.35.35h-1.7a.35.35,0,0,1-.35-.35Z"/><path class="cls-1" d="M181.34,198.15a.37.37,0,0,1,.35-.35h1.76a.35.35,0,0,1,.35.35v7.55a2.69,2.69,0,1,0,5.37,0v-7.57a.35.35,0,0,1,.35-.35h1.75a.36.36,0,0,1,.35.35v7.68a5.14,5.14,0,0,1-10.28,0Z"/><path class="cls-1" d="M199.88,198.15a.35.35,0,0,1,.35-.35h1.7a.37.37,0,0,1,.35.35v10.36H207a.35.35,0,0,1,.35.35v1.51a.34.34,0,0,1-.35.35h-6.75a.34.34,0,0,1-.35-.35Z"/><path class="cls-1" d="M160.25,164h-.07l-22.94-1.27a1.35,1.35,0,0,1-1.12-.73L134,157.74a1.89,1.89,0,0,1-.1-1.84,1.78,1.78,0,0,1,1.68-.89H157a2.64,2.64,0,0,1,2.33,1.6l0,.09,2.15,5.45a1.39,1.39,0,0,1-.16,1.28A1.36,1.36,0,0,1,160.25,164Zm-22.1-3.91,20.09,1.11-1.36-3.45,0-.05h-19.9Z"/><path class="cls-1" d="M160.29,187.7h0a4.86,4.86,0,0,1-1.26-.16l-19.92-5.73a3,3,0,0,1-2.09-2.93l-1-17.43a1.35,1.35,0,0,1,1.41-1.42l23,1.28a1.34,1.34,0,0,1,1.26,1.33l0,23.72a1.37,1.37,0,0,1-.4.95A1.33,1.33,0,0,1,160.29,187.7Zm-21.55-24.91.94,16a.13.13,0,0,1,0,.06s0,.39.17.43l19.08,5.49,0-20.82Z"/><path class="cls-1" d="M160.25,164a1.35,1.35,0,0,1-1.24-1.84l2.15-5.45a.36.36,0,0,1,0-.09,2.64,2.64,0,0,1,2.33-1.6H185a1.79,1.79,0,0,1,1.68.88,1.88,1.88,0,0,1-.1,1.84L184.39,162a1.37,1.37,0,0,1-1.12.73L160.33,164Zm3.38-6.25-1.37,3.45,20.09-1.11,1.21-2.39h-19.9Z"/><path class="cls-1" d="M160.22,187.7a1.34,1.34,0,0,1-.95-.39,1.36,1.36,0,0,1-.39-.95l0-23.72a1.34,1.34,0,0,1,1.27-1.33L183.12,160a1.35,1.35,0,0,1,1.41,1.42l-1,17.43a3,3,0,0,1-2.07,2.93l-19.91,5.72a4.8,4.8,0,0,1-1.29.17Zm1.37-23.79,0,20.82,19.1-5.49c.14,0,.16-.43.16-.43v-.06l1-16Z"/><path class="cls-5" d="M17.43,182.63H76.18l1.69-8.45a1.43,1.43,0,0,0-1.4-1.7H23.6a4.83,4.83,0,0,0-4.71,3.76Z"/><path class="cls-5" d="M35.25,164.21h45l2.1-8.16a1.66,1.66,0,0,0-1.75-2H41.24a4.81,4.81,0,0,0-4.87,3.74Z"/><path class="cls-5" d="M25.94,201.24H71l2.11-8.16a1.67,1.67,0,0,0-1.76-2H31.94a4.8,4.8,0,0,0-4.87,3.74Z"/><path class="cls-5" d="M52.33,146.39H85.38L87.2,138a1.49,1.49,0,0,0-1.56-1.71H57.79A4.54,4.54,0,0,0,53.15,140Z"/><path class="cls-5" d="M32.08,220H65.13L67,211.56a1.48,1.48,0,0,0-1.56-1.71H37.54a4.53,4.53,0,0,0-4.64,3.74Z"/><path class="cls-5" d="M375.59,236.47c-.78,6.61-4.93,11.55-9.27,11s-3.44-6.28-2.66-12.89,1.15-11.56,5.49-11S376.37,229.86,375.59,236.47Z"/><path class="cls-5" d="M335.19,232.71c-.78,6.61-4.93,11.56-9.27,11s-3.44-6.28-2.66-12.89,1.15-11.55,5.49-11S336,226.1,335.19,232.71Z"/></g></svg>