<?xml version="1.0" encoding="utf-8"?>
<!-- Generator: Adobe Illustrator 23.0.3, SVG Export Plug-In . SVG Version: 6.00 Build 0)  -->
<svg version="1.1" id="Layer_3" xmlns="http://www.w3.org/2000/svg" xmlns:xlink="http://www.w3.org/1999/xlink" x="0px" y="0px"
	 viewBox="0 0 451.43 180.37" style="enable-background:new 0 0 451.43 180.37;" xml:space="preserve">
<style type="text/css">
	.st0{fill:#E9F7F7;}
	.st1{fill:#BCBEC0;}
	.st2{fill:#1BC4E0;}
	.st3{fill:#2C4153;}
	.st4{fill:#00C7B1;}
</style>
<g>
	<g>
		<path class="st0" d="M83.46,119.68c2.65,10.6,14.59,37.75,67.84,42.57h196.12c38.99,0,70.89-31.9,70.89-70.89v-2.62
			c0-38.99-31.9-70.89-70.89-70.89H151.3c-39.08-1.64-69.57,23.99-70.52,61.98c-0.03,1.3-0.42,2.56-1.18,3.61
			c-3.56,4.94-15.94,18.46-45.48,20.01c-1.07,0.06-1.5,1.44-0.62,2.05c10.78,7.59,27.76,13.36,44.85,10.79
			C80.67,115.94,82.89,117.4,83.46,119.68z"/>
		<path class="st1" d="M82.49,119.94c7.44,29.16,42.01,42.23,69.13,43.3c20,0.79,40.2,0,60.21,0c32.45,0,64.89,0,97.34,0
			c10.54,0,21.08,0,31.63,0c10.35,0,20.45-0.55,30.37-4.06c41.7-14.76,60.44-65.35,39.69-104.17
			c-10.17-19.03-28.88-32.93-50.1-36.92c-7.76-1.46-15.57-1.26-23.41-1.26c-27.67,0-55.33,0-83,0c-29.35,0-58.7,0-88.05,0
			c-5.47,0-10.95,0.05-16.42-0.05c-20.92-0.36-42.02,7.03-55.67,23.43c-6.4,7.68-10.8,16.88-12.9,26.65
			c-1.08,5-0.25,12.02-2.8,16.37c-1.3,2.22-3.67,4.21-5.6,5.84c-7.94,6.72-18.04,10.43-28.19,12.19c-3.2,0.56-7.75,0.03-10.73,1.19
			c-1.03,0.4-1.81,0.74-1.92,1.98c-0.27,3.18,7.54,5.98,9.73,7.01c5.46,2.58,11.27,4.45,17.22,5.49c3.19,0.56,6.43,0.89,9.66,0.96
			C72.16,117.96,80.76,115.79,82.49,119.94c0.49,1.17,2.43,0.66,1.93-0.53c-1.92-4.59-5.19-4.09-9.61-3.71
			c-7.87,0.67-15.83-0.33-23.37-2.65c-3.44-1.06-6.8-2.39-10.01-4c-1.32-0.66-2.62-1.37-3.89-2.13c-1.36-0.81-3.08-0.96-1.64-2.59
			c0.71-0.8,7.17-0.77,8.57-1c2.91-0.48,5.8-1.11,8.64-1.92c7.92-2.27,15.56-5.95,21.78-11.42c1.78-1.57,3.52-3.29,4.93-5.21
			c2.35-3.2,1.91-6.61,2.3-10.44c2.34-22.59,16.83-41.82,37.85-50.35c11.52-4.68,23.41-5.16,35.62-5.16c53.91,0,107.82,0,161.73,0
			c21.95,0,44.66-2.21,64.53,9.14c41.64,23.78,47.51,84.28,11.57,115.89c-13.15,11.57-29.88,17.35-47.29,17.39
			c-7.02,0.01-14.04,0-21.06,0c-29.38,0-58.77,0-88.15,0c-25.71,0-51.43,0-77.14,0c-25.52,0-56.16-6.94-70.42-30.24
			c-2.21-3.61-3.9-7.49-4.94-11.59C84.1,118.17,82.17,118.69,82.49,119.94z"/>
	</g>
	<g>
		<path class="st2" d="M211.88,135.34v14.72h-4.35v-14.72h-1.54v-4.05h1.54V127c0-2.36,0.41-4.03,1.23-5.01
			c1.13-1.36,2.77-2.04,4.93-2.04c0.77,0,1.74,0.22,2.91,0.67v4.43l-0.44-0.23c-0.94-0.48-1.71-0.71-2.31-0.71
			c-0.77,0-1.29,0.28-1.56,0.83c-0.27,0.54-0.4,1.58-0.4,3.12v3.23h4.72v4.05H211.88z"/>
		<path class="st2" d="M225.99,120.62v25.21h5.07v4.22h-9.56v-29.43H225.99z"/>
		<path class="st2" d="M252.09,133.13c-2-2-4.43-3.02-7.24-3.02c-2.83,0-5.29,1.01-7.3,2.99c-2.03,1.99-3.06,4.4-3.06,7.17
			c0,3.14,1.13,5.73,3.36,7.68c2.01,1.75,4.32,2.64,6.86,2.64c2.86,0,5.34-1,7.36-2.98c2.02-1.97,3.05-4.4,3.05-7.23
			C255.12,137.58,254.1,135.14,252.09,133.13z M249.21,144.87c-1.22,1.23-2.68,1.83-4.46,1.83c-1.63,0-3.04-0.59-4.29-1.8
			c-1.26-1.2-1.87-2.71-1.87-4.59c0-1.79,0.59-3.25,1.81-4.47c1.21-1.23,2.66-1.82,4.42-1.82c1.77,0,3.22,0.6,4.41,1.82
			c1.21,1.22,1.8,2.7,1.8,4.52C251.02,142.15,250.43,143.63,249.21,144.87z"/>
		<polygon class="st2" points="291.33,128.2 287.96,128.2 287.96,119.94 283.62,119.94 283.62,128.2 281.77,128.2 281.77,132.24 
			283.62,132.24 283.62,150.06 287.96,150.06 287.96,132.24 291.33,132.24 		"/>
		<path class="st2" d="M244.8,137.67C244.81,137.67,244.81,137.67,244.8,137.67c0.75,0,1.37,0.25,1.87,0.77
			c0.51,0.52,0.76,1.14,0.76,1.91h2.58c0-1.52-0.49-2.76-1.5-3.78c-1-1.03-2.21-1.53-3.7-1.53c0,0-0.01,0-0.01,0V137.67z"/>
		<g>
			<path class="st2" d="M273.73,131.28h4.35v18.77h-4.35v-1.97c-1.79,1.67-3.71,2.5-5.76,2.5c-2.59,0-4.74-0.94-6.44-2.81
				c-1.68-1.91-2.52-4.3-2.52-7.17c0-2.81,0.84-5.16,2.52-7.03c1.68-1.88,3.79-2.81,6.32-2.81c2.18,0,4.14,0.9,5.88,2.7V131.28z
				 M263.44,140.61c0,1.8,0.48,3.26,1.45,4.39c0.99,1.14,2.24,1.71,3.74,1.71c1.61,0,2.9-0.55,3.89-1.66
				c0.99-1.14,1.48-2.59,1.48-4.35s-0.49-3.21-1.48-4.35c-0.99-1.12-2.27-1.68-3.85-1.68c-1.49,0-2.74,0.57-3.74,1.7
				C263.93,137.51,263.44,138.93,263.44,140.61z"/>
		</g>
	</g>
	<g>
		<path class="st3" d="M126.3,36.37h4.71v1.26h-3.35v8.15h-1.36V36.37z"/>
		<path class="st3" d="M132.62,38.01h3.34c2.21,0,3.8,0.7,3.8,2.65c0,1.02-0.57,2-1.54,2.33v0.07c1.23,0.26,2.12,1.1,2.12,2.56
			c0,2.14-1.74,3.16-4.13,3.16h-3.6V38.01z M135.77,42.5c1.64,0,2.33-0.62,2.33-1.62c0-1.13-0.76-1.55-2.28-1.55h-1.49v3.18H135.77z
			 M136.03,47.45c1.68,0,2.65-0.6,2.65-1.92c0-1.21-0.94-1.74-2.65-1.74h-1.71v3.66H136.03z"/>
		<path class="st3" d="M141.67,44.77c0-2.69,1.8-4.24,3.79-4.24c1.99,0,3.79,1.55,3.79,4.24c0,2.66-1.8,4.2-3.79,4.2
			C143.47,48.97,141.67,47.43,141.67,44.77z M147.52,44.77c0-1.71-0.79-2.85-2.06-2.85c-1.26,0-2.05,1.14-2.05,2.85
			c0,1.7,0.79,2.82,2.05,2.82C146.73,47.59,147.52,46.47,147.52,44.77z"/>
		<path class="st3" d="M152.44,44.58l-2.41-3.85h1.81l0.97,1.62c0.23,0.44,0.5,0.89,0.76,1.35h0.06c0.22-0.45,0.45-0.91,0.67-1.35
			l0.85-1.62h1.76l-2.41,4.04l2.59,4.01h-1.83l-1.05-1.7c-0.26-0.48-0.54-0.98-0.83-1.43h-0.07c-0.25,0.45-0.5,0.94-0.75,1.43
			l-0.94,1.7h-1.77L152.44,44.58z"/>
		<path class="st3" d="M162.5,38.46c-0.29-0.13-0.6-0.21-0.88-0.21c-0.72,0-1.07,0.47-1.07,1.45v1.02h1.62v1.35h-1.62v6.7h-1.68
			v-6.7h-1.1v-1.26l1.1-0.09v-1.01c0-1.65,0.75-2.79,2.55-2.79c0.54,0,1.05,0.12,1.42,0.28L162.5,38.46z"/>
		<path class="st3" d="M163.54,45.79v-5.06h1.68v4.86c0,1.39,0.4,1.93,1.35,1.93c0.75,0,1.26-0.35,1.93-1.2v-5.59h1.68v8.05h-1.38
			l-0.13-1.21h-0.04c-0.73,0.85-1.52,1.41-2.63,1.41C164.29,48.97,163.54,47.84,163.54,45.79z"/>
		<path class="st3" d="M172.72,46.89v-9.78h1.67v9.86c0,0.45,0.2,0.61,0.41,0.61c0.07,0,0.13,0,0.28-0.03l0.22,1.27
			c-0.21,0.07-0.5,0.13-0.91,0.13C173.17,48.97,172.72,48.19,172.72,46.89z"/>
		<path class="st3" d="M180.43,43.51c-0.23,1.3-0.72,2.63-1.33,3.69c0.25,0.13,0.54,0.37,1,0.61c1.01,0.58,2.37,0.67,4.05,0.67
			c1.74,0,4.24-0.13,5.9-0.34c-0.18,0.37-0.41,1.05-0.42,1.43c-1.11,0.07-3.8,0.16-5.53,0.16c-1.89,0-3.15-0.15-4.23-0.76
			c-0.58-0.32-1.11-0.79-1.43-0.79c-0.32,0-0.85,0.92-1.26,1.77l-0.91-1.29c0.42-0.56,0.88-1.02,1.29-1.33l-0.01-0.01
			c0.63-0.76,1.13-1.87,1.42-2.94h-2.06c0.41-0.86,0.89-2.06,1.32-3.19h-1.68v-1.23h3.45c-0.38,1.04-0.85,2.24-1.27,3.25h0.73
			l0.19-0.04L180.43,43.51z M178.32,39.35c-0.23-0.63-0.76-1.67-1.11-2.44l1.17-0.42c0.38,0.76,0.89,1.74,1.17,2.36L178.32,39.35z
			 M189.63,39.24h-9.2v-1.07h4.1c-0.2-0.41-0.51-0.97-0.82-1.38l1.3-0.42c0.38,0.48,0.81,1.14,1.01,1.57l-0.67,0.23h4.29V39.24z
			 M181.38,43.86h7.11v3.56h-7.11V43.86z M188.39,41.07h-6.85v-1.01h6.85V41.07z M181.54,41.96h6.85v1.01h-6.85V41.96z
			 M182.67,46.41h4.49v-1.54h-4.49V46.41z"/>
		<path class="st3" d="M195.41,45.19c-0.19-0.45-0.61-1.24-0.99-1.93v6.66h-1.26v-6.19c-0.44,1.39-0.98,2.68-1.57,3.51
			c-0.13-0.37-0.45-0.88-0.64-1.17c0.86-1.2,1.7-3.37,2.09-5.22h-1.79v-1.26h1.9V36.5h1.26v3.09h1.57v1.26h-1.57v0.81
			c0.4,0.53,1.48,2.17,1.71,2.55L195.41,45.19z M199.2,45.97c-0.53,1.77-1.73,3.01-3.09,3.69c-0.15-0.28-0.48-0.67-0.73-0.89
			c0.94-0.4,1.81-1.16,2.34-2.11h-1.87V45.7h2.39l0.21-0.04L199.2,45.97z M199.55,39.13h-3.22v-1h1.73
			c-0.19-0.39-0.48-0.88-0.73-1.26l1-0.38c0.37,0.44,0.73,1.07,0.92,1.48l-0.38,0.16h2.49l-0.25-0.09c0.29-0.45,0.64-1.11,0.83-1.57
			l1.2,0.37c-0.32,0.47-0.61,0.92-0.89,1.29h1.98v1h-3.37v0.75h2.96v0.97h-2.96v0.79h3.57v1.02h-4.32c0.89,0.29,1.8,0.67,2.37,0.98
			l-0.7,0.86c-0.73-0.45-2.17-1.02-3.29-1.35l0.44-0.5h-2.97v-1.02h3.6v-0.79h-2.66v-0.97h2.66V39.13z M204.29,45.21
			c-0.7,0.57-1.51,1.17-2.19,1.61c0.72,0.75,1.6,1.35,2.58,1.7c-0.26,0.25-0.64,0.7-0.82,1.02c-1.2-0.56-2.24-1.51-3.01-2.68v1.77
			c0,0.6-0.12,0.94-0.54,1.11c-0.41,0.19-1.04,0.21-1.93,0.21c-0.06-0.34-0.22-0.82-0.35-1.13c0.57,0.01,1.16,0.01,1.33,0.01
			s0.21-0.06,0.21-0.22v-3.6h-2.52v-0.97h3.8v0.86c0.18,0.41,0.4,0.8,0.66,1.17c0.63-0.5,1.35-1.14,1.79-1.62L204.29,45.21z"/>
		<path class="st3" d="M218.69,38.77c0,0,0,0.47-0.01,0.64c-0.21,6.6-0.38,8.87-0.97,9.6c-0.37,0.48-0.72,0.61-1.27,0.69
			c-0.51,0.06-1.38,0.04-2.21,0c-0.03-0.37-0.19-0.94-0.44-1.32c0.94,0.07,1.79,0.09,2.15,0.09c0.29,0,0.45-0.04,0.61-0.25
			c0.47-0.48,0.66-2.69,0.85-8.21h-3.45c-0.41,0.94-0.86,1.79-1.33,2.46c-0.22-0.21-0.73-0.57-1.07-0.76v6.72h-3.97v1.11h-1.24
			v-10.7h1.64c0.2-0.7,0.42-1.67,0.51-2.37l1.48,0.25c-0.25,0.73-0.53,1.51-0.76,2.12h2.34v2.77c0.97-1.26,1.74-3.21,2.18-5.14
			l1.32,0.31c-0.18,0.67-0.37,1.35-0.6,1.99H218.69z M207.59,40.03v2.78h2.72v-2.78H207.59z M210.31,47.23v-3.23h-2.72v3.23H210.31z
			 M215.18,46.09c-0.41-0.89-1.36-2.33-2.14-3.38l1.07-0.6c0.78,1.01,1.77,2.4,2.21,3.26L215.18,46.09z"/>
		<path class="st3" d="M225.62,48.4c0,0.66-0.12,1.07-0.53,1.29c-0.41,0.23-1.01,0.26-1.99,0.25c-0.03-0.34-0.19-0.97-0.37-1.3
			c0.6,0.03,1.19,0.01,1.38,0.01c0.17-0.01,0.25-0.07,0.25-0.28v-3.29h-1.98c-0.13,1.73-0.41,3.54-1.05,4.89
			c-0.23-0.21-0.79-0.51-1.11-0.63c0.97-2.02,1.04-4.95,1.04-7.08v-5.22h4.36V48.4z M224.36,43.79v-2.15h-1.87v0.61
			c0,0.47,0,1-0.03,1.54H224.36z M222.49,38.29v2.08h1.87v-2.08H222.49z M233.49,42.27c-0.35,1.96-1.01,3.57-1.89,4.87
			c0.67,0.73,1.45,1.35,2.33,1.76c-0.31,0.25-0.67,0.72-0.88,1.05c-0.83-0.45-1.58-1.07-2.22-1.8c-0.62,0.7-1.29,1.27-2.05,1.73
			c-0.18-0.31-0.51-0.75-0.79-0.98v1.04h-1.29V37.06h6.37v2.81c0,0.63-0.13,0.98-0.64,1.16c-0.51,0.19-1.29,0.19-2.37,0.19
			c-0.06-0.35-0.26-0.83-0.42-1.16c0.8,0.03,1.62,0.03,1.83,0.01c0.23,0,0.31-0.04,0.31-0.22v-1.52h-3.78v3.7h4.49l0.22-0.04
			L233.49,42.27z M227.99,48.87c0.76-0.4,1.46-1,2.08-1.73c-0.78-1.11-1.38-2.43-1.81-3.86h-0.26V48.87z M229.41,43.28
			c0.34,1.02,0.8,1.98,1.39,2.82c0.51-0.83,0.94-1.77,1.23-2.82H229.41z"/>
		<path class="st3" d="M247.21,39.13c-0.39,0.92-0.95,1.7-1.62,2.34c0.86,0.5,1.87,0.86,2.96,1.1c-0.28,0.26-0.67,0.79-0.85,1.14
			c-1.17-0.31-2.24-0.78-3.18-1.4c-0.89,0.58-1.95,1.02-3.09,1.38c-0.07-0.16-0.22-0.38-0.38-0.6c-0.25,0.86-0.53,1.73-0.8,2.36
			l-0.94-0.47c0.23-0.57,0.45-1.39,0.64-2.2h-1.13v5.62c0,0.66-0.1,1.02-0.54,1.26c-0.42,0.19-1.02,0.22-1.93,0.22
			c-0.04-0.37-0.22-0.92-0.4-1.29c0.59,0.03,1.17,0.03,1.35,0.01s0.23-0.04,0.23-0.22v-3.96c-0.54,1.26-1.23,2.44-1.98,3.17
			c-0.13-0.39-0.45-0.95-0.69-1.3c0.88-0.78,1.71-2.17,2.24-3.51h-2.03v-1.18h3.73c-0.8-0.59-2.08-1.27-3.13-1.73l0.85-0.88
			c0.41,0.16,0.88,0.37,1.32,0.59c0.45-0.35,0.89-0.79,1.26-1.23h-3.85v-1.16h4.81l0.22-0.04l0.88,0.54
			c-0.54,0.86-1.42,1.77-2.28,2.44c0.47,0.26,0.86,0.54,1.17,0.78l-0.63,0.69h0.91l0.2-0.07l0.82,0.29
			c-0.04,0.19-0.09,0.38-0.13,0.59c0.83-0.23,1.58-0.54,2.24-0.92c-0.5-0.47-0.94-0.98-1.3-1.54c-0.29,0.32-0.59,0.6-0.88,0.85
			c-0.26-0.22-0.79-0.6-1.13-0.78c1.16-0.83,2.19-2.15,2.78-3.53l1.27,0.35c-0.17,0.39-0.38,0.78-0.6,1.16h4.61v1.14H247.21z
			 M247.96,44.62c0,0-0.01,0.35-0.04,0.54c-0.25,2.62-0.51,3.75-0.92,4.18c-0.29,0.29-0.59,0.38-0.98,0.44
			c-0.37,0.03-0.97,0.03-1.62,0c-0.03-0.38-0.18-0.91-0.37-1.26c0.57,0.06,1.11,0.07,1.36,0.07c0.22,0,0.34-0.03,0.47-0.16
			c0.25-0.22,0.45-0.97,0.64-2.68h-2.12c-0.5,1.8-1.52,3.26-3.83,4.17c-0.16-0.32-0.53-0.82-0.8-1.05c1.9-0.69,2.79-1.79,3.25-3.12
			h-2.05v-1.14h2.34c0.07-0.45,0.13-0.91,0.18-1.39h1.35c-0.04,0.48-0.1,0.94-0.18,1.39H247.96z M243.01,39.13
			c0.38,0.6,0.88,1.13,1.48,1.61c0.51-0.45,0.92-1,1.23-1.61H243.01z"/>
		<path class="st3" d="M262.9,41.58h-1.27v6.75c0,0.76-0.18,1.13-0.64,1.35c-0.47,0.22-1.19,0.26-2.36,0.26
			c-0.07-0.35-0.28-0.95-0.47-1.29c0.82,0.03,1.58,0.01,1.81,0.01c0.25-0.01,0.34-0.09,0.34-0.34v-6.75h-3.32v-0.83h-2.15l1.14,0.41
			c-0.29,0.56-0.6,1.13-0.88,1.62h1.48v1.13h-2.56v1.26h2.3v1.11h-2.3v1.3c0.98-0.1,1.98-0.22,2.96-0.35l0.03,1.2
			c-2.55,0.35-5.25,0.67-7.13,0.92l-0.19-1.27c0.85-0.09,1.92-0.21,3.07-0.35v-1.45h-2.25v-1.11h2.25V43.9h-2.58v-1.13h1.76
			c-0.19-0.47-0.63-1.13-1.04-1.59l0.82-0.44h-1.99v-1.13h2.11V38.9l-0.72,0.48c-0.22-0.51-0.76-1.3-1.26-1.84l0.83-0.56
			c0.42,0.42,0.86,1,1.14,1.48v-1.95h1.08v3.1h0.92v-3.1h1.1v2.05c0.39-0.48,0.83-1.1,1.1-1.55l1.08,0.6
			c-0.56,0.64-1.16,1.35-1.64,1.8l-0.54-0.32v0.53H257v0.69h3.31v-3.78h1.32v3.78h1.27V41.58z M253.87,42.78
			c0.32-0.58,0.72-1.43,0.92-2.03h-2.87c0.41,0.48,0.86,1.1,1.04,1.54l-0.86,0.5H253.87z M258.45,46.28
			c-0.1-0.85-0.61-2.24-1.17-3.29l1.13-0.39c0.6,1.04,1.14,2.38,1.27,3.26L258.45,46.28z"/>
		<path class="st3" d="M277.66,48.4v1.11h-10.73V48.4h4.6v-1.2h-3.25v-1.07h3.25v-1.07h-2.75c-0.42,0.72-0.92,1.38-1.45,1.86
			c-0.1-0.25-0.44-0.92-0.66-1.2c-0.13,1.51-0.51,3.18-1.52,4.36c-0.2-0.25-0.78-0.73-1.04-0.86c1.17-1.41,1.3-3.38,1.3-4.86v-2.84
			h1.87c-0.19-0.21-0.42-0.45-0.6-0.59c1.11-0.19,2.38-0.47,3.58-0.76c-1.05-0.29-2.11-0.56-3.07-0.76l0.75-0.57h-2.41v-1.07h5.21
			c-0.2-0.34-0.44-0.67-0.67-0.95l0.95-0.45c0.37,0.41,0.79,0.97,1.02,1.41H277v1.07h-2.18l0.64,0.41c-0.6,0.29-1.3,0.59-2.06,0.86
			c0.98,0.28,1.89,0.57,2.6,0.82l-0.67,0.59h2.12v1.11h-10.73v1.74c0,0.42-0.01,0.88-0.06,1.35c0.78-0.73,1.46-1.79,1.86-2.9
			l1.17,0.34c-0.1,0.28-0.22,0.54-0.35,0.82h2.18V42.9h1.35v1.08h3.79v1.08h-3.79v1.07h3.41v1.07h-3.41v1.2H277.66z M274.69,41.52
			c-0.78-0.28-1.77-0.59-2.82-0.91c-1.2,0.37-2.43,0.66-3.57,0.91H274.69z M268.6,38.84c1.07,0.25,2.22,0.54,3.34,0.85
			c0.86-0.26,1.64-0.54,2.25-0.85H268.6z"/>
		<path class="st3" d="M279.49,43.53h5.3v6.31h-1.35v-0.66h-2.66v0.76h-1.29V43.53z M280.78,44.83v3.04h2.66v-3.04H280.78z
			 M289.74,42.11h-8.18v-4.99h8.18V42.11z M288.35,38.42h-5.49v2.39h5.49V38.42z M291.79,43.53v6.34h-1.36v-0.69h-2.9v0.76h-1.3
			v-6.41H291.79z M290.42,47.87v-3.04h-2.9v3.04H290.42z"/>
		<path class="st3" d="M294.13,43.53h5.3v6.31h-1.35v-0.66h-2.66v0.76h-1.29V43.53z M295.42,44.83v3.04h2.66v-3.04H295.42z
			 M304.38,42.11h-8.18v-4.99h8.18V42.11z M302.98,38.42h-5.49v2.39h5.49V38.42z M306.42,43.53v6.34h-1.36v-0.69h-2.9v0.76h-1.3
			v-6.41H306.42z M305.06,47.87v-3.04h-2.9v3.04H305.06z"/>
		<path class="st3" d="M313.7,45.4c-1.8,0.66-3.69,1.35-5.14,1.84l-0.54-1.3c0.59-0.18,1.32-0.4,2.12-0.66V39.4h-1.8v-1.26h4.96
			v1.26h-1.8v5.44l1.96-0.64L313.7,45.4z M316.76,48.03c-0.94,0.73-2.44,1.49-3.72,1.9c-0.19-0.26-0.58-0.7-0.85-0.94
			c1.23-0.4,2.71-1.13,3.44-1.73L316.76,48.03z M316.44,39.56c0.09-0.41,0.17-0.85,0.25-1.26h-3.28v-1.16h8.21v1.16h-3.38
			c-0.13,0.42-0.29,0.86-0.42,1.26h3.25v7.59h-6.98v-7.59H316.44z M319.73,40.58h-4.39v1.2h4.39V40.58z M319.73,42.73h-4.39v1.21
			h4.39V42.73z M319.73,44.9h-4.39v1.23h4.39V44.9z M318.96,47.33c0.95,0.48,2.24,1.26,2.91,1.8l-1.08,0.82
			c-0.6-0.53-1.89-1.35-2.84-1.89L318.96,47.33z"/>
		<path class="st3" d="M326.37,47.58v2.34h-1.23v-2.34h-2.31v-1.16h2.31v-1.04h-1.89v-5.27h1.87v-0.98h-2.17v-1.16h2.17V36.5h1.24
			v1.48h2.18v1.17h-2.18v0.97h1.95v5.27h-1.95v1.04h2.19v1.16H326.37z M324.32,42.27h0.94v-1.16h-0.94V42.27z M324.32,44.4h0.94
			v-1.19h-0.94V44.4z M327.21,41.11h-0.95v1.16h0.95V41.11z M327.21,43.22h-0.95v1.19h0.95V43.22z M334.68,43
			c-0.34,1.26-0.82,2.4-1.48,3.4c0.88,1.04,1.98,1.87,3.23,2.37c-0.31,0.26-0.7,0.79-0.91,1.16c-1.23-0.56-2.28-1.39-3.13-2.44
			c-0.88,1.02-1.98,1.84-3.26,2.49c-0.18-0.31-0.59-0.79-0.86-1.04c1.35-0.61,2.47-1.48,3.34-2.52c-0.63-1-1.16-2.12-1.54-3.32
			c-0.19,0.25-0.37,0.47-0.51,0.67c-0.25-0.23-0.78-0.63-1.1-0.83c0.72-0.76,1.48-1.92,1.96-2.97l1.29,0.42
			c-0.45,0.88-1.05,1.86-1.61,2.66l1.14-0.28c0.29,0.88,0.66,1.73,1.16,2.49c0.44-0.78,0.79-1.64,1.02-2.56L334.68,43z
			 M336.01,39.76h-7.27v-1.24h3.28c-0.21-0.47-0.56-1.11-0.86-1.61l1.14-0.5c0.38,0.53,0.78,1.21,0.98,1.68l-0.88,0.42h3.61V39.76z
			 M334.18,39.95c0.7,0.91,1.65,2.17,2.14,2.93l-1.13,0.75c-0.42-0.78-1.35-2.09-2.06-3.04L334.18,39.95z"/>
		<path class="st3" d="M349.02,44.58c-2,3.25-5.9,4.73-11.05,5.34c-0.12-0.4-0.38-0.97-0.64-1.3c4.92-0.47,8.63-1.73,10.46-4.62
			L349.02,44.58z M341.44,39.08c-0.7,1.79-1.74,3.72-2.65,4.95c-0.25-0.19-0.86-0.51-1.19-0.66c0.97-1.16,1.92-2.96,2.53-4.62
			L341.44,39.08z M344.63,36.53v8.97h-1.36v-8.97H344.63z M348.04,38.7c1,1.45,2.15,3.34,2.72,4.55l-1.17,0.69
			c-0.53-1.23-1.7-3.22-2.65-4.67L348.04,38.7z"/>
		<path class="st3" d="M357.37,44.42l-1.24,1.07c-0.92-1.13-2.18-2.39-3.2-3.25l1.2-1.04C355.17,42.05,356.53,43.42,357.37,44.42z"
			/>
		<path class="st3" d="M363.17,40.33c-0.48,2.14-1.3,4.79-2.58,6.41c-0.34-0.25-0.94-0.58-1.3-0.72c1.23-1.52,2-4.04,2.34-5.97
			L363.17,40.33z M366.9,36.71v11.43c0,0.91-0.23,1.3-0.8,1.54c-0.58,0.22-1.52,0.26-2.91,0.25c-0.09-0.38-0.32-1.02-0.54-1.42
			c1,0.04,2.06,0.04,2.37,0.03c0.31-0.01,0.41-0.1,0.41-0.39V36.71H366.9z M370.24,39.94c1.24,2.03,2.44,4.7,2.81,6.47l-1.48,0.58
			c-0.31-1.73-1.46-4.45-2.65-6.56L370.24,39.94z"/>
		<path class="st3" d="M129.46,70.89c-0.35-0.6-1.11-1.64-1.74-2.44c-0.35,1.57-1.02,3.1-2.31,4.27c-0.21-0.28-0.64-0.72-0.98-0.94
			c1.64-1.39,2.17-3.45,2.34-5.34h-2.19v-1.24h2.25c0.01-0.32,0.01-0.61,0.01-0.91v-1.24h-1.99v-1.21h1.99v-2.17h1.27v2.17h1.96
			v1.21h-1.96v1.24c0,0.29,0,0.58-0.01,0.91h2.24v1.24h-2.31c-0.01,0.2-0.03,0.39-0.06,0.6c0.57,0.58,2.08,2.4,2.43,2.85
			L129.46,70.89z M136.56,71.47c0.23,0,0.31-0.13,0.34-1.1c0.23,0.21,0.76,0.41,1.11,0.5c-0.13,1.43-0.47,1.8-1.3,1.8h-1.13
			c-1.1,0-1.36-0.37-1.36-1.58v-2.85h-0.85c-0.25,2.17-0.95,3.78-3.47,4.7c-0.15-0.31-0.48-0.79-0.76-1.02
			c2.18-0.72,2.72-1.98,2.94-3.67h-1.26v-8.18h6.31v8.18h-1.65v2.85c0,0.35,0.04,0.38,0.31,0.38H136.56z M132.09,62.44h3.73v-1.17
			h-3.73V62.44z M132.09,64.73h3.73v-1.19h-3.73V64.73z M132.09,67.02h3.73v-1.2h-3.73V67.02z"/>
		<path class="st3" d="M143.25,67.75c-0.18-0.48-0.51-1.27-0.86-1.98v7.16h-1.23v-6.41c-0.41,1.38-0.92,2.66-1.46,3.51
			c-0.13-0.41-0.44-1.01-0.66-1.36c0.82-1.17,1.64-3.35,2.03-5.15h-1.7v-1.26h1.79V59.5h1.23v2.77h1.58v1.24h-1.58v0.44
			c0.38,0.57,1.46,2.42,1.7,2.85L143.25,67.75z M148.87,69.8c1.2,0.61,2.88,1.52,3.76,2.11l-0.85,0.97
			c-0.85-0.59-2.53-1.57-3.76-2.22l0.8-0.85h-0.6c-0.57,1.49-1.74,2.52-4.3,3.15c-0.13-0.32-0.47-0.83-0.72-1.1
			c2.02-0.41,3.01-1.08,3.56-2.05h-3.15v-1.14h3.56c0.09-0.34,0.13-0.67,0.18-1.05h-2.88v-4.62h7.19v4.62h-2.96
			c-0.04,0.38-0.09,0.72-0.16,1.05h3.78v1.14H148.87z M145.5,61.74h-1.65v-1.11h1.65v-1.11h1.21v1.11h1.11v1.11h-1.11v0.92h-1.21
			V61.74z M145.74,64.83h4.59v-0.85h-4.59V64.83z M145.74,66.63h4.59v-0.86h-4.59V66.63z M149.38,61.73h-1.13v-1.11h1.13v-1.1h1.21
			v1.1h1.86v1.11h-1.86v0.94h-1.21V61.73z"/>
		<path class="st3" d="M166.46,60.09v12.8h-1.3V72.2h-9.39v0.75h-1.24V60.09H166.46z M165.16,71.13v-10h-9.39v10H165.16z
			 M164.75,68.88h-1.99v1.17c0,0.48-0.12,0.64-0.47,0.75c-0.37,0.12-0.91,0.12-1.76,0.12c-0.04-0.25-0.18-0.51-0.29-0.73
			c0.5,0.01,1.02,0.01,1.17,0.01c0.16-0.01,0.21-0.06,0.21-0.19v-1.13h-5.43v-0.79h5.43v-0.48h1.14v0.48h1.99V68.88z M163.13,66.25
			c0.53,0.39,1.1,0.94,1.4,1.29l-0.73,0.56c-0.15-0.19-0.35-0.4-0.57-0.61c-2.49,0.07-4.99,0.15-6.79,0.19l-0.06-0.79
			c0.97,0,2.17-0.01,3.47-0.03v-0.6h-3v-2.94h3v-0.53h-3.5v-0.81h3.5v-0.6h1.13v0.6h3.57v0.81h-3.57v0.53h3.12v2.94H163.13z
			 M158.79,70.68c-0.23-0.39-0.72-0.97-1.16-1.36l0.86-0.44c0.44,0.38,0.97,0.92,1.2,1.3L158.79,70.68z M157.92,64.46h1.93v-0.54
			h-1.93V64.46z M159.85,65.62v-0.56h-1.93v0.56H159.85z M160.98,63.92v0.54h2.02v-0.54H160.98z M162.99,65.62v-0.56h-2.02v0.56
			H162.99z M162.51,66.82c-0.09-0.07-0.18-0.15-0.26-0.22l0.54-0.35h-1.81v0.6L162.51,66.82z"/>
		<path class="st3" d="M173.32,60.6c-0.41,1.21-0.92,2.74-1.38,3.88c0.98,1.17,1.2,2.17,1.2,3.04c0,0.83-0.18,1.45-0.6,1.76
			c-0.22,0.13-0.48,0.23-0.79,0.28c-0.26,0.03-0.63,0.03-0.97,0.01c-0.01-0.32-0.12-0.85-0.31-1.17c0.29,0.03,0.54,0.03,0.75,0.01
			c0.18,0,0.31-0.04,0.44-0.13c0.2-0.15,0.28-0.48,0.28-0.92c0-0.73-0.25-1.67-1.2-2.74c0.38-1,0.76-2.28,1.02-3.26h-1.57v11.59H169
			V60.13h3.23l0.19-0.04L173.32,60.6z M181.53,64.56c-0.56,0.41-1.21,0.85-1.84,1.23c0.5,1.58,1.46,3.31,2.39,4.23
			c-0.26,0.19-0.67,0.61-0.88,0.91c-0.94-1.05-1.89-2.87-2.46-4.57l-0.18,0.09c0.73,2.37,0.41,4.87-0.44,5.65
			c-0.44,0.48-0.88,0.63-1.55,0.64c-0.28,0-0.76-0.01-1.16-0.03c-0.03-0.35-0.13-0.86-0.34-1.21c0.48,0.04,0.95,0.06,1.24,0.06
			c0.35,0,0.6-0.06,0.82-0.37c0.35-0.34,0.59-1.32,0.54-2.5c-1.11,0.92-2.65,1.81-3.95,2.34c-0.19-0.32-0.5-0.75-0.8-0.98
			c1.62-0.51,3.57-1.61,4.61-2.68c-0.07-0.32-0.16-0.66-0.28-0.98c-0.89,0.72-2.12,1.49-3.06,1.96c-0.16-0.28-0.48-0.72-0.73-0.98
			c1.08-0.41,2.58-1.23,3.4-1.95c-0.19-0.35-0.4-0.67-0.63-1c-0.82,0.61-1.71,1.16-2.56,1.55c-0.16-0.25-0.54-0.75-0.8-0.98
			c1.17-0.45,2.39-1.14,3.29-1.95h-2.96v-1.18h2.62c-0.35-0.51-0.98-1.19-1.55-1.65l1.01-0.64c0.67,0.53,1.4,1.26,1.74,1.8
			l-0.73,0.5l1.49,0.01c0.53-0.64,1.13-1.64,1.46-2.36l1.3,0.4c-0.41,0.69-0.91,1.4-1.35,1.96h2.5v1.17h-3.97
			c-0.19,0.23-0.42,0.44-0.66,0.66c0.47,0.53,0.82,1.13,1.1,1.74c0.88-0.53,1.84-1.24,2.49-1.8L181.53,64.56z"/>
		<path class="st3" d="M196.05,61.77c0,0,0,0.47-0.01,0.64c-0.21,6.6-0.38,8.87-0.97,9.6c-0.37,0.48-0.72,0.61-1.27,0.69
			c-0.51,0.06-1.38,0.04-2.21,0c-0.03-0.37-0.19-0.94-0.44-1.32c0.94,0.07,1.79,0.09,2.15,0.09c0.29,0,0.45-0.04,0.61-0.25
			c0.47-0.48,0.66-2.69,0.85-8.21h-3.45c-0.41,0.94-0.86,1.79-1.33,2.46c-0.22-0.21-0.73-0.57-1.07-0.76v6.72h-3.97v1.11h-1.24
			v-10.7h1.64c0.2-0.7,0.42-1.67,0.51-2.37l1.48,0.25c-0.25,0.73-0.53,1.51-0.76,2.12h2.34v2.77c0.97-1.26,1.74-3.21,2.18-5.14
			l1.32,0.31c-0.18,0.67-0.37,1.35-0.6,1.99H196.05z M184.94,63.03v2.78h2.72v-2.78H184.94z M187.66,70.23v-3.23h-2.72v3.23H187.66z
			 M192.54,69.09c-0.41-0.89-1.36-2.33-2.14-3.38l1.07-0.6c0.78,1.01,1.77,2.4,2.21,3.26L192.54,69.09z"/>
		<path class="st3" d="M198.29,66.53h5.3v6.31h-1.35v-0.66h-2.66v0.76h-1.29V66.53z M199.58,67.83v3.04h2.66v-3.04H199.58z
			 M208.54,65.11h-8.18v-4.99h8.18V65.11z M207.15,61.42h-5.49v2.39h5.49V61.42z M210.58,66.53v6.34h-1.36v-0.69h-2.9v0.76h-1.3
			v-6.41H210.58z M209.22,70.87v-3.04h-2.9v3.04H209.22z"/>
		<path class="st3" d="M215.81,59.52h1.13v5.09h-2.47v0.72c0,0.38,0,0.76-0.01,1.19h2.47v6.42h-1.24v-5.27h-1.27
			c-0.12,1.8-0.37,3.75-0.97,5.27c-0.29-0.13-0.86-0.32-1.21-0.42c0.86-2.08,1-5.11,1-7.18v-5.49h1.24v3.6h1.35V59.52z
			 M225.73,70.04h-2.41v2.88h-1.23v-2.88h-4.76v-1.2h1.48c-0.19-0.18-0.41-0.35-0.6-0.47c0.69-0.45,1.21-0.97,1.6-1.49h-1.96v-5.87
			h2.03c0.22-0.47,0.48-1.05,0.6-1.48l1.52,0.21c-0.23,0.45-0.47,0.89-0.67,1.27h3.73v5.87h-3.89c-0.37,0.69-0.88,1.38-1.6,1.96
			h2.52V67.2h1.23v1.64h2.4L225.73,70.04z M219.11,63.41h1.76v-1.32h-1.76V63.41z M220.42,65.78c0.21-0.47,0.32-0.94,0.38-1.33h-1.7
			v1.33H220.42z M223.74,64.45h-1.73c-0.07,0.37-0.18,0.83-0.34,1.33h2.06V64.45z M223.74,62.09h-1.67v1.32h1.67V62.09z"/>
		<path class="st3" d="M232.25,62.6c-0.25,0.5-0.5,1-0.78,1.46h6.92v7.29c0,0.73-0.15,1.14-0.67,1.35
			c-0.51,0.22-1.33,0.22-2.55,0.22c-0.04-0.37-0.25-0.95-0.42-1.32c0.86,0.04,1.74,0.04,1.99,0.03c0.25,0,0.32-0.07,0.32-0.29v-1.26
			h-5.9c-0.22,1.1-0.67,2.17-1.54,2.96c-0.18-0.31-0.72-0.88-0.98-1.07c1.23-1.13,1.35-2.72,1.35-4.08v-1.73
			c-0.63,0.75-1.33,1.41-2.12,1.96c-0.21-0.31-0.62-0.79-0.89-1.05c1.61-1.08,2.85-2.71,3.76-4.46h-3.44v-1.27h4.01
			c0.25-0.61,0.45-1.23,0.62-1.83l1.39,0.32c-0.16,0.5-0.32,1.01-0.53,1.51h7.29v1.27H232.25z M237.07,68.94v-1.27h-5.71v0.25
			c0,0.32-0.01,0.67-0.04,1.02H237.07z M237.07,65.27h-5.71v1.26h5.71V65.27z"/>
		<path class="st3" d="M246.12,63.22c-0.34,0.59-0.75,1.2-1.19,1.79v7.92h-1.33v-6.35c-0.48,0.51-1,1-1.48,1.39
			c-0.1-0.31-0.47-1.04-0.69-1.38c1.27-0.92,2.65-2.39,3.48-3.85L246.12,63.22z M245.9,60.06c-0.89,1.3-2.28,2.68-3.58,3.56
			c-0.15-0.32-0.5-0.86-0.7-1.14c1.13-0.73,2.37-1.92,2.99-2.91L245.9,60.06z M254.54,67.89c-0.75,0.59-1.68,1.23-2.44,1.68
			c0.76,0.95,1.74,1.68,2.96,2.11c-0.29,0.28-0.72,0.8-0.92,1.17c-2.5-1.08-3.95-3.29-4.79-6.23h-1.2v4.48l2.34-0.54
			c-0.01,0.4,0.01,0.94,0.06,1.24c-2.93,0.78-3.42,0.94-3.73,1.16c-0.1-0.31-0.38-0.85-0.59-1.1c0.26-0.15,0.59-0.5,0.59-1.13V60.13
			h6.91v6.48h-3.17c0.23,0.73,0.54,1.4,0.89,2.02c0.75-0.47,1.64-1.16,2.19-1.68L254.54,67.89z M248.15,61.32v1.48h4.26v-1.48
			H248.15z M248.15,65.43h4.26V63.9h-4.26V65.43z"/>
		<path class="st3" d="M264.03,64.96c1,3.04,2.84,5.52,5.6,6.67c-0.34,0.29-0.79,0.86-1.01,1.27c-2.74-1.27-4.51-3.64-5.65-6.75
			c-0.75,2.65-2.33,5.18-5.65,6.75c-0.22-0.37-0.66-0.85-1.04-1.14c3.48-1.52,4.9-4.16,5.49-6.8h-5.19v-1.4h5.44
			c0.18-1.46,0.16-2.87,0.18-4.04h1.48c-0.01,1.19-0.03,2.59-0.2,4.04h5.9v1.4H264.03z"/>
		<path class="st3" d="M283.88,61.77c0,0,0,0.47-0.01,0.64c-0.2,6.6-0.38,8.87-0.96,9.6c-0.37,0.48-0.72,0.61-1.27,0.69
			c-0.51,0.06-1.38,0.04-2.21,0c-0.03-0.37-0.19-0.94-0.44-1.32c0.94,0.07,1.79,0.09,2.15,0.09c0.29,0,0.45-0.04,0.62-0.25
			c0.47-0.48,0.66-2.69,0.85-8.21h-3.45c-0.41,0.94-0.86,1.79-1.33,2.46c-0.22-0.21-0.73-0.57-1.07-0.76v6.72h-3.97v1.11h-1.24
			v-10.7h1.64c0.21-0.7,0.42-1.67,0.51-2.37l1.48,0.25c-0.25,0.73-0.53,1.51-0.76,2.12h2.34v2.77c0.97-1.26,1.74-3.21,2.18-5.14
			l1.32,0.31c-0.17,0.67-0.37,1.35-0.6,1.99H283.88z M272.77,63.03v2.78h2.72v-2.78H272.77z M275.5,70.23v-3.23h-2.72v3.23H275.5z
			 M280.37,69.09c-0.41-0.89-1.36-2.33-2.14-3.38l1.07-0.6c0.78,1.01,1.77,2.4,2.21,3.26L280.37,69.09z"/>
		<path class="st3" d="M297.96,71.48c0,0.6-0.15,0.88-0.6,1.05c-0.48,0.16-1.2,0.15-2.22,0.15c-0.07-0.32-0.28-0.7-0.42-1
			c0.73,0.03,1.45,0.03,1.64,0.01c0.21-0.01,0.26-0.06,0.26-0.23v-0.88h-3.73v2.33h-1.35v-2.33h-3.47v2.11h-1.32v-3.06h4.79v-0.6
			h-4.05v-3.42h4.07c0.12-0.25,0.23-0.54,0.31-0.78c-2.2,0.18-4.41,0.37-5.99,0.48l-0.09-0.86l2.63-0.18v-0.67h-2.24v-0.75h2.24
			V62.3h-2.55v-0.73h2.55v-0.57h-2.02v-0.72h2.02V59.5h1.29v0.78h2.11v0.72h-2.11v0.57h2.53v0.73h-2.53v0.57h2.27v0.75h-2.27v0.6
			c0.85-0.06,1.74-0.13,2.63-0.19l-0.01,0.69l0.88,0.17c-0.15,0.26-0.29,0.51-0.42,0.73h4.36v3.42h-4.26v0.6h5.08V71.48z
			 M288.7,66.96h7.18v-0.57h-7.18V66.96z M288.7,68.27h7.18v-0.57h-7.18V68.27z M298.75,60.73v1.02h-1.48v2.36
			c0,0.57-0.12,0.8-0.53,0.97c-0.44,0.18-1.02,0.19-1.9,0.19c-0.09-0.32-0.28-0.72-0.45-1c0.61,0.01,1.2,0.01,1.38,0.01
			c0.19-0.01,0.25-0.06,0.25-0.22v-2.31h-3.67v-1.02h3.67v-1.21h1.26v1.21H298.75z M294.19,64.1c-0.22-0.5-0.78-1.23-1.26-1.74
			l0.89-0.47c0.5,0.48,1.07,1.18,1.32,1.65L294.19,64.1z"/>
		<path class="st3" d="M306.81,69.98c-2.3,0.56-4.74,1.14-6.5,1.55l-0.25-1.4c0.32-0.06,0.67-0.12,1.04-0.19v-9.76h4.86v8.74
			l0.72-0.16L306.81,69.98z M302.32,61.4v1.84h2.39V61.4H302.32z M304.7,64.43h-2.39v1.86h2.39V64.43z M302.32,69.69
			c0.75-0.16,1.55-0.32,2.39-0.5v-1.7h-2.39V69.69z M313.13,62.72c0,0-0.01,0.47-0.01,0.64c-0.15,6.06-0.28,8.17-0.75,8.79
			c-0.31,0.44-0.63,0.57-1.11,0.64c-0.45,0.06-1.23,0.04-1.99,0.01c-0.03-0.38-0.18-0.94-0.4-1.3c0.76,0.06,1.48,0.06,1.79,0.06
			c0.25,0.01,0.4-0.03,0.54-0.22c0.32-0.42,0.48-2.33,0.6-7.35h-1.95c-0.23,3.82-1.01,7.02-3.92,8.96
			c-0.21-0.34-0.63-0.79-0.95-1.04c2.65-1.68,3.35-4.49,3.56-7.92h-2.14v-1.29h2.18c0.03-1.02,0.03-2.11,0.03-3.21h1.33
			c0,1.1,0,2.18-0.03,3.21H313.13z"/>
		<path class="st3" d="M316.51,70.61c0-0.76,0.6-1.29,1.33-1.29s1.33,0.53,1.33,1.29s-0.6,1.27-1.33,1.27S316.51,71.37,316.51,70.61
			z M316.82,62.76l-0.04-1.93h2.15l-0.04,1.93l-0.44,5.38h-1.2L316.82,62.76z"/>
		<path class="st3" d="M326.41,73.07h-4.71v-1.26h3.35v-8.15h1.36V73.07z"/>
	</g>
	<g>
		<g>
			<g>
				<path class="st4" d="M144.88,97.88h23.13v0.93h-23.13V97.88z"/>
				<path class="st4" d="M144.21,105.01v-0.73H353.1v0.73H144.21z"/>
			</g>
		</g>
		<g>
			<path class="st4" d="M173.83,90.27h3.15c2.49,0,4.15,0.83,4.15,3.24c0,2.34-1.66,3.42-4.07,3.42h-1.82v4.39h-1.4V90.27z
				 M176.88,95.8c1.95,0,2.86-0.71,2.86-2.29c0-1.6-0.98-2.11-2.92-2.11h-1.58v4.4H176.88z"/>
			<path class="st4" d="M182.98,90.56c0-0.56,0.41-0.89,0.95-0.89c0.54,0,0.95,0.33,0.95,0.89c0,0.51-0.41,0.89-0.95,0.89
				C183.39,91.45,182.98,91.07,182.98,90.56z M183.23,93.14h1.37v8.19h-1.37V93.14z"/>
			<path class="st4" d="M187.38,93.14h1.13l0.12,1.18h0.04c0.78-0.77,1.63-1.39,2.74-1.39c1.72,0,2.5,1.12,2.5,3.21v5.19h-1.37v-5
				c0-1.54-0.47-2.19-1.55-2.19c-0.84,0-1.42,0.42-2.25,1.25v5.94h-1.37V93.14z"/>
			<path class="st4" d="M196.58,89.32h1.36v8.14h0.03l3.51-4.33h1.52l-2.74,3.29l3.11,4.9h-1.49l-2.4-3.95l-1.54,1.79v2.16h-1.36
				V89.32z"/>
			<path class="st4" d="M203.98,97.24c0-2.73,1.79-4.31,3.8-4.31c2,0,3.8,1.58,3.8,4.31c0,2.71-1.79,4.28-3.8,4.28
				C205.78,101.52,203.98,99.95,203.98,97.24z M210.16,97.24c0-1.88-0.96-3.17-2.38-3.17c-1.42,0-2.37,1.28-2.37,3.17
				c0,1.88,0.95,3.14,2.37,3.14C209.2,100.37,210.16,99.12,210.16,97.24z"/>
			<path class="st4" d="M213.48,90.56c0-0.56,0.41-0.89,0.95-0.89c0.54,0,0.95,0.33,0.95,0.89c0,0.51-0.41,0.89-0.95,0.89
				C213.88,91.45,213.48,91.07,213.48,90.56z M213.73,93.14h1.37v8.19h-1.37V93.14z"/>
			<path class="st4" d="M224.63,88.76c-0.01,0.54-0.03,1.3-0.11,2.19c0.23,1.79,1.13,8.1,6.45,10.46c-0.32,0.26-0.65,0.63-0.81,0.95
				c-3.77-1.76-5.38-5.49-6.11-8.29c-0.69,3.01-2.29,6.39-5.97,8.35c-0.2-0.3-0.56-0.63-0.9-0.87c6.26-3.17,6.17-10.49,6.21-12.78
				H224.63z"/>
			<path class="st4" d="M235.63,90.98c-0.74,1.18-1.66,2.2-2.58,2.96c-0.18-0.23-0.57-0.66-0.81-0.88c1.39-1.03,2.64-2.64,3.36-4.36
				l1.09,0.3c-0.17,0.38-0.33,0.72-0.53,1.08h9.26v0.89H235.63z M236.41,99.33c-0.69,1.18-1.99,2.44-3.12,3.08
				c-0.17-0.26-0.48-0.6-0.71-0.81c1.1-0.51,2.35-1.58,3-2.61L236.41,99.33z M237.9,98.53v3.93h-1.07v-3.93h-4.04v-0.9h4.04v-2.62
				h1.07v2.62h3.95v0.9H237.9z M243.48,93.78c-0.01,4.66,0.11,7.58,1.31,7.58c0.32,0,0.39-0.89,0.42-2.19
				c0.23,0.26,0.53,0.51,0.77,0.66c-0.09,1.97-0.33,2.62-1.25,2.62c-2.09,0-2.32-2.92-2.35-7.79h-8.61v-0.89H243.48z M234.66,95.16
				c0.5,0.57,1.03,1.36,1.21,1.9l-0.89,0.38c-0.18-0.53-0.66-1.33-1.16-1.91L234.66,95.16z M235.31,92.8v-0.86h8.96v0.86H235.31z
				 M239.17,99.02c1,0.71,2.22,1.73,2.83,2.43l-0.71,0.68c-0.57-0.69-1.79-1.78-2.77-2.52L239.17,99.02z M241.09,95.55
				c-0.54,0.71-1.16,1.49-1.64,2.01l-0.72-0.32c0.45-0.57,1.05-1.46,1.37-2.06L241.09,95.55z"/>
			<path class="st4" d="M252.94,101.19c-1.28,0.51-3.21,1.03-4.72,1.3c-0.18-0.2-0.56-0.6-0.81-0.78c1.6-0.2,3.44-0.56,4.57-0.96
				L252.94,101.19z M253.58,90.3h-5.8v-0.81h5.8V88.7h1.1v0.78h5.89v0.81h-5.89v0.72h5.02v0.74h-10.9v-0.74h4.78V90.3z
				 M259.95,94.79h-11.44v-2.41h11.44V94.79z M249.4,100.55v-5.14h9.74v5.14H249.4z M251.95,93.09h-2.44v1h2.44V93.09z
				 M250.49,96.89h7.54v-0.78h-7.54V96.89z M250.49,98.38h7.54v-0.83h-7.54V98.38z M250.49,99.87h7.54v-0.84h-7.54V99.87z
				 M255.4,93.09h-2.52v1h2.52V93.09z M256.34,100.78c1.67,0.35,3.53,0.81,4.64,1.19l-1.28,0.56c-0.95-0.35-2.59-0.81-4.33-1.19
				L256.34,100.78z M258.91,93.09h-2.58v1h2.58V93.09z"/>
			<path class="st4" d="M274.49,94.81c-0.68,0.56-1.51,1.16-2.32,1.7c0.69,1.99,2.13,3.69,4.01,4.42c-0.24,0.21-0.57,0.63-0.72,0.92
				c-1.91-0.86-3.35-2.61-4.16-4.78c-0.23,0.15-0.48,0.3-0.71,0.42c0.51,1.94,0.14,3.8-0.68,4.43c-0.48,0.41-0.87,0.53-1.54,0.53
				c-0.35,0-0.81-0.02-1.3-0.03c0-0.32-0.12-0.75-0.29-1.06c0.54,0.05,1.04,0.08,1.36,0.08c0.39,0,0.68-0.05,0.96-0.32
				c0.45-0.33,0.72-1.37,0.59-2.59c-1.72,1.31-4.3,2.56-6.45,3.23c-0.12-0.29-0.38-0.69-0.59-0.95c2.41-0.56,5.34-1.96,6.83-3.32
				c-0.11-0.35-0.23-0.71-0.41-1.06c-1.48,1.01-3.8,2.07-5.59,2.62c-0.12-0.24-0.36-0.65-0.57-0.87c1.88-0.45,4.4-1.52,5.71-2.5
				c-0.2-0.32-0.44-0.6-0.72-0.89c-1.34,0.75-2.89,1.34-4.34,1.78c-0.11-0.23-0.42-0.68-0.62-0.89c1.9-0.45,3.95-1.21,5.38-2.19
				h-3.44v-0.98h8.67v0.98h-3.74c-0.33,0.29-0.68,0.54-1.07,0.8c0.69,0.69,1.22,1.49,1.54,2.31c1.15-0.74,2.44-1.73,3.29-2.52
				L274.49,94.81z M264.09,93.14h-1.09v-3.09h5.65c-0.17-0.38-0.36-0.77-0.56-1.1l1.15-0.33c0.27,0.42,0.57,1,0.74,1.43h5.56v3.09
				h-1.13v-2.05h-10.33V93.14z"/>
			<path class="st4" d="M279.79,95.37c-0.54-0.44-1.64-1.08-2.46-1.55l0.56-0.83c0.78,0.41,1.91,1.03,2.47,1.42L279.79,95.37z
				 M280.98,97.37c-0.69,1.58-1.61,3.47-2.4,4.85l-0.89-0.63c0.72-1.16,1.73-3.15,2.47-4.85L280.98,97.37z M280.46,91.52
				c-0.54-0.48-1.58-1.27-2.37-1.82l0.66-0.77c0.77,0.51,1.84,1.25,2.37,1.72L280.46,91.52z M284.25,99.48c-0.66,1-1.7,2-2.62,2.65
				c-0.17-0.18-0.6-0.48-0.84-0.63c0.93-0.59,1.88-1.45,2.47-2.32L284.25,99.48z M286.65,98.64v3.81h-1.09v-3.81h-4.27v-0.92h9.9
				v0.92H286.65z M284.39,90.21h-3.04v-0.94h9.72v0.94h-3.21v1.16h2.64v3.59h-8.65v-3.59h2.55V90.21z M282.25,96.74v-0.87h7.96v0.87
				H282.25z M282.82,94.1h1.57v-1.87h-1.57V94.1z M286.91,90.21h-1.58v1.16h1.58V90.21z M285.33,94.1h1.58v-1.87h-1.58V94.1z
				 M287.86,92.23v1.87h1.61v-1.87H287.86z M288.73,99.14c0.89,0.69,1.98,1.69,2.52,2.34l-0.87,0.54c-0.51-0.63-1.6-1.66-2.47-2.4
				L288.73,99.14z"/>
			<path class="st4" d="M295.19,95.31c-0.62-0.42-1.84-1.12-2.74-1.6l0.62-0.8c0.89,0.42,2.13,1.07,2.76,1.48L295.19,95.31z
				 M292.84,101.58c0.75-1.19,1.82-3.17,2.62-4.9l0.86,0.69c-0.74,1.6-1.7,3.5-2.52,4.88L292.84,101.58z M295.9,91.36
				c-0.6-0.44-1.79-1.19-2.68-1.7l0.63-0.8c0.87,0.48,2.08,1.18,2.7,1.6L295.9,91.36z M305.9,98.47h-4.08v2.82
				c0,0.59-0.12,0.84-0.59,1.01c-0.45,0.17-1.13,0.17-2.17,0.17c-0.05-0.3-0.23-0.69-0.38-0.98c0.77,0.03,1.55,0.03,1.76,0.01
				c0.23,0,0.29-0.04,0.29-0.24v-2.79h-4.18v-1.04h4.18V96.6c0.69-0.42,1.48-1.06,2.11-1.66h-5.44v-1.03h6.42l0.24-0.06l0.72,0.57
				c-0.78,0.87-1.92,1.85-2.97,2.55v0.45h4.08V98.47z M305.64,89.61c-2.2,0.6-5.64,0.95-8.5,1.09c-0.01-0.27-0.15-0.66-0.29-0.92
				c2.82-0.18,6.2-0.53,8.08-1.06L305.64,89.61z M298.43,93.72c-0.21-0.63-0.68-1.64-1.09-2.38l0.9-0.35
				c0.44,0.72,0.92,1.69,1.13,2.32L298.43,93.72z M300.91,93.56c-0.15-0.68-0.51-1.73-0.8-2.52l0.95-0.29
				c0.32,0.77,0.69,1.78,0.84,2.44L300.91,93.56z M302.73,93.36c0.5-0.78,1.13-2.04,1.49-2.92l1.02,0.44
				c-0.51,0.98-1.13,2.11-1.64,2.86L302.73,93.36z"/>
			<path class="st4" d="M310.59,98.97c0.66-0.21,1.37-0.41,2.05-0.6l0.14,1.01c-1.73,0.53-3.59,1.08-4.98,1.49l-0.23-1.07
				c0.54-0.15,1.22-0.33,1.96-0.54V95.1h-1.79v-1.04h1.79v-3.27h-1.9v-1.05h4.87v1.05h-1.92v3.27h1.58v1.04h-1.58V98.97z
				 M317.56,89.01c-0.09,0.2-0.2,0.38-0.29,0.56c1.04,1.46,2.8,2.92,4.34,3.68c-0.27,0.21-0.62,0.62-0.8,0.9
				c-1.39-0.78-2.97-2.2-4.09-3.68c-1.03,1.52-2.43,2.83-4.08,3.8c-0.17-0.21-0.51-0.6-0.75-0.78c2.08-1.13,3.78-2.92,4.63-4.79
				L317.56,89.01z M320.83,97.57c-1.37,2.44-3.98,4.04-7.31,4.92c-0.15-0.3-0.42-0.69-0.66-0.96c3.18-0.71,5.73-2.16,6.98-4.37
				L320.83,97.57z M317.75,93.3c-0.95,1.19-2.47,2.31-3.83,3c-0.17-0.23-0.45-0.56-0.72-0.77c1.31-0.57,2.83-1.61,3.66-2.61
				L317.75,93.3z M319.19,95.41c-1.13,1.63-3.06,3.06-5.02,3.94c-0.17-0.26-0.45-0.6-0.71-0.83c1.87-0.74,3.78-2.07,4.81-3.53
				L319.19,95.41z"/>
			<path class="st4" d="M326.93,101.1c-0.3-0.44-0.78-0.96-1.31-1.51c-0.56,0.98-1.33,1.94-2.4,2.82c-0.15-0.21-0.5-0.56-0.74-0.68
				c1.1-0.89,1.88-1.88,2.41-2.88c-0.66-0.66-1.39-1.31-2.04-1.88c0.3-1.01,0.62-2.43,0.89-3.91l-1.07,0.06l-0.12-1.04l1.37-0.06
				c0.17-1.13,0.32-2.26,0.41-3.26l0.98,0.04c-0.09,0.98-0.26,2.07-0.44,3.15l1.28-0.06v-1.06h0.95v1.01l0.75-0.04v0.98l-0.75,0.06
				c-0.01,1.72-0.15,3.77-1.01,5.77c0.6,0.59,1.15,1.16,1.49,1.64L326.93,101.1z M324.71,93c-0.26,1.31-0.54,2.59-0.78,3.65
				c0.45,0.38,0.93,0.81,1.42,1.25c0.69-1.75,0.8-3.51,0.81-4.99L324.71,93z M335.96,94.1c0,0,0,0.36-0.01,0.51
				c-0.26,4.82-0.47,6.62-1,7.21c-0.3,0.36-0.59,0.47-1.1,0.51c-0.45,0.05-1.28,0.03-2.17-0.01c-0.02-0.33-0.15-0.78-0.35-1.1
				c0.9,0.09,1.76,0.11,2.1,0.11c0.29,0,0.45-0.04,0.6-0.2c0.41-0.39,0.63-1.96,0.84-6h-2.71c0.29-1.13,0.63-2.8,0.89-4.3h-2.26
				c-0.08,4.31-0.38,9.11-3.14,11.7c-0.17-0.24-0.54-0.57-0.81-0.74c2.59-2.37,2.8-6.95,2.85-10.96H328v-1.04h6.3
				c-0.24,1.36-0.56,3.02-0.86,4.31H335.96z"/>
			<path class="st4" d="M342.48,96.56c-0.27-0.5-0.89-1.42-1.42-2.17v8.1h-1.09v-7.07c-0.51,1.6-1.16,3.12-1.85,4.12
				c-0.13-0.33-0.44-0.75-0.63-1.03c0.95-1.36,1.9-3.77,2.35-5.83h-2.05v-1.06h2.19v-2.89h1.09v2.89h1.84v1.06h-1.84v0.36
				c0.47,0.51,1.84,2.19,2.17,2.61L342.48,96.56z M348.09,90.75c-0.23,0.65-0.48,1.27-0.77,1.88v9.8h-1.1v-7.76
				c-0.84,1.37-1.84,2.58-2.89,3.51c-0.17-0.23-0.6-0.68-0.86-0.87c1.9-1.51,3.45-3.89,4.43-6.56h-3.92v-1.07h8.1v1.07H348.09z
				 M348.18,93.3c1.12,1.21,2.49,2.88,3.14,3.93l-0.92,0.69c-0.6-1.07-1.96-2.79-3.06-4.06L348.18,93.3z"/>
		</g>
	</g>
</g>
</svg>
